<?xml version="1.0" encoding="utf-8"?>
<!-- Generator: Adobe Illustrator 27.0.0, SVG Export Plug-In . SVG Version: 6.00 Build 0)  -->
<svg version="1.1" id="Camada_1" xmlns="http://www.w3.org/2000/svg" xmlns:xlink="http://www.w3.org/1999/xlink" x="0px" y="0px"
	 viewBox="0 0 807.9 807.9" style="enable-background:new 0 0 807.9 807.9;" xml:space="preserve">
<style type="text/css">
	.st0{fill:#FFFFFF;}
</style>
<path class="st0" d="M404,0.5C181.1,0.5,0.5,181.1,0.5,404S181.1,807.4,404,807.4S807.4,626.8,807.4,404S626.8,0.5,404,0.5z
	 M404,148c70.7,0,128,57.3,128,128s-57.3,128-128,128s-128-57.3-128-128S333.3,148,404,148z M598.3,660H209.7
	c-16.4,0-29.7-13.3-29.7-29.7c0-98.5,79.8-178.3,178.3-178.3h91.4c98.5,0,178.3,79.8,178.3,178.3C628,646.7,614.7,660,598.3,660z"/>
</svg>
